<svg version="1.1" id="Layer_1" xmlns="http://www.w3.org/2000/svg" xmlns:xlink="http://www.w3.org/1999/xlink" x="0px" y="0px"
	 width="100%" viewBox="0 0 114 110" enable-background="new 0 0 114 110" xml:space="preserve">
<path fill="#08083F" opacity="1.000000" stroke="none" 
	d="
M81.000000,111.000000 
	C55.000000,111.000000 29.499826,110.958511 4.000274,111.065315 
	C1.499425,111.075790 0.928679,110.499977 0.935550,107.999825 
	C1.030829,73.333420 1.030829,38.666584 0.935550,4.000177 
	C0.928679,1.500022 1.500079,0.929112 4.000168,0.935645 
	C39.999924,1.029718 76.000076,1.029718 111.999832,0.935645 
	C114.499924,0.929112 115.071320,1.500022 115.064453,4.000177 
	C114.969177,38.666584 114.969177,73.333420 115.064453,107.999825 
	C115.071327,110.499977 114.505112,111.108917 111.998894,111.068352 
	C101.834892,110.903862 91.666664,111.000000 81.000000,111.000000 
z"/>
<path fill="#F2F2F5" opacity="1.000000" stroke="none" 
	d="
M48.288376,73.937393 
	C48.288342,76.755234 48.277122,79.085098 48.291065,81.414818 
	C48.309578,84.508041 48.383949,88.001984 44.137268,87.920807 
	C40.301414,87.847473 40.213871,84.568832 40.218140,81.620819 
	C40.228256,74.631432 40.118378,67.639786 40.270161,60.653679 
	C40.333645,57.731655 39.971733,55.908295 36.617916,54.770554 
	C32.116337,53.243450 29.582571,48.165359 30.427425,43.404148 
	C31.413290,37.848270 32.810837,32.364620 34.066837,26.858089 
	C34.367050,25.541920 34.833164,24.022404 36.557404,24.400841 
	C38.076366,24.734224 38.300797,26.193451 38.291794,27.621162 
	C38.266605,31.614929 38.246754,35.609623 38.310692,39.602573 
	C38.332829,40.984688 37.838364,42.596260 40.119648,43.971958 
	C41.533508,39.337059 41.081413,34.700562 41.898003,30.292416 
	C42.281223,28.223684 41.019218,24.614967 44.226974,24.564730 
	C47.440929,24.514399 46.275734,28.131699 46.686863,30.189020 
	C47.571068,34.613598 46.786854,39.325550 49.232128,45.062000 
	C50.822926,39.629074 49.781498,35.415955 50.280399,31.369223 
	C50.574013,28.987650 48.580482,24.930450 52.204025,24.652613 
	C55.474022,24.401882 54.717445,28.680668 55.393696,31.045715 
	C56.443272,34.716408 57.275040,38.463127 57.959911,42.221210 
	C59.055981,48.235661 56.813267,52.842068 51.193119,55.106129 
	C48.582222,56.157921 48.181293,57.594608 48.250652,59.970932 
	C48.381699,64.460281 48.288437,68.956177 48.288376,73.937393 
z"/>
<path fill="#F9F9FA" opacity="1.000000" stroke="none" 
	d="
M70.196243,32.303276 
	C72.563911,29.212143 75.045723,26.781656 78.328796,25.318396 
	C83.829712,22.866642 86.192909,24.304893 86.245087,30.312288 
	C86.321777,39.142704 86.266388,47.974274 86.266510,56.805351 
	C86.266624,65.303185 86.253380,73.801041 86.272179,82.298828 
	C86.278610,85.204002 85.743286,87.992622 82.200729,87.926079 
	C78.675026,87.859863 78.225761,85.000854 78.240700,82.138313 
	C78.251137,80.138878 78.187569,78.137550 78.253075,76.140221 
	C78.396423,71.769653 79.519806,67.081947 72.204811,67.568535 
	C69.570084,67.743805 67.126373,65.181740 66.878166,62.332333 
	C66.000748,52.259613 64.674812,42.068104 70.196243,32.303276 
z"/>
</svg>